<mxfile host="Electron" modified="2025-06-17T22:05:12.175Z" agent="Mozilla/5.0 (Windows NT 10.0; Win64; x64) AppleWebKit/537.36 (KHTML, like Gecko) draw.io/22.1.18 Chrome/120.0.6099.199 Electron/28.1.2 Safari/537.36" etag="NhvHu2rRVHecESZO6n1V" version="22.1.18" type="device" pages="3">
  <diagram name="Page-1" id="tL5D3yn08xS5HqZTuTw1">
    <mxGraphModel dx="1644" dy="511" grid="1" gridSize="10" guides="1" tooltips="1" connect="1" arrows="1" fold="1" page="1" pageScale="1" pageWidth="850" pageHeight="1100" math="0" shadow="0">
      <root>
        <mxCell id="0" />
        <mxCell id="1" parent="0" />
        <mxCell id="IiUBcbkbjQB2-cWpCQRh-11" value="Contexts" parent="0" />
        <mxCell id="IiUBcbkbjQB2-cWpCQRh-12" value="Ministry" style="rounded=1;whiteSpace=wrap;html=1;dashed=1;container=1;collapsible=0;recursiveResize=0;align=left;verticalAlign=top;spacing=0;spacingTop=-4;arcSize=8;absoluteArcSize=1;" parent="IiUBcbkbjQB2-cWpCQRh-11" vertex="1">
          <mxGeometry x="-30" y="300" width="640" height="150" as="geometry" />
        </mxCell>
        <mxCell id="IiUBcbkbjQB2-cWpCQRh-13" value="Sector" style="rounded=1;whiteSpace=wrap;html=1;dashed=1;container=1;collapsible=0;recursiveResize=0;align=left;verticalAlign=top;spacing=0;spacingTop=-4;arcSize=8;absoluteArcSize=1;" parent="IiUBcbkbjQB2-cWpCQRh-11" vertex="1">
          <mxGeometry x="-30" y="140" width="640" height="150" as="geometry" />
        </mxCell>
        <mxCell id="IiUBcbkbjQB2-cWpCQRh-14" value="Components" parent="0" />
        <mxCell id="IiUBcbkbjQB2-cWpCQRh-15" value="Te Rito" style="rounded=1;whiteSpace=wrap;html=1;dashed=1;container=1;collapsible=0;recursiveResize=0;align=left;verticalAlign=top;spacing=0;spacingTop=-4;arcSize=8;absoluteArcSize=1;" parent="IiUBcbkbjQB2-cWpCQRh-14" vertex="1">
          <mxGeometry x="270" y="220" width="100" height="150" as="geometry" />
        </mxCell>
        <mxCell id="IiUBcbkbjQB2-cWpCQRh-16" value="LDH" style="rounded=0;whiteSpace=wrap;html=1;" parent="IiUBcbkbjQB2-cWpCQRh-15" vertex="1">
          <mxGeometry x="10" y="20" width="80" height="40" as="geometry" />
        </mxCell>
        <mxCell id="IiUBcbkbjQB2-cWpCQRh-17" value="ODH" style="rounded=0;whiteSpace=wrap;html=1;" parent="IiUBcbkbjQB2-cWpCQRh-15" vertex="1">
          <mxGeometry x="10" y="100" width="80" height="40" as="geometry" />
        </mxCell>
        <mxCell id="IiUBcbkbjQB2-cWpCQRh-18" value="IdP" style="rounded=0;whiteSpace=wrap;html=1;" parent="IiUBcbkbjQB2-cWpCQRh-14" vertex="1">
          <mxGeometry x="40" y="240" width="80" height="40" as="geometry" />
        </mxCell>
        <mxCell id="IiUBcbkbjQB2-cWpCQRh-19" value="IdP&lt;br&gt;Broker" style="rounded=0;whiteSpace=wrap;html=1;" parent="IiUBcbkbjQB2-cWpCQRh-14" vertex="1">
          <mxGeometry x="160" y="400" width="80" height="40" as="geometry" />
        </mxCell>
        <mxCell id="IiUBcbkbjQB2-cWpCQRh-21" value="Context Service&lt;br&gt;(e.g. Te Rito)" style="rounded=0;whiteSpace=wrap;html=1;" parent="IiUBcbkbjQB2-cWpCQRh-14" vertex="1">
          <mxGeometry x="400" y="400" width="80" height="40" as="geometry" />
        </mxCell>
        <mxCell id="IiUBcbkbjQB2-cWpCQRh-22" value="Directory Service" style="rounded=0;whiteSpace=wrap;html=1;" parent="IiUBcbkbjQB2-cWpCQRh-14" vertex="1">
          <mxGeometry x="40" y="320" width="80" height="40" as="geometry" />
        </mxCell>
        <mxCell id="IiUBcbkbjQB2-cWpCQRh-23" value="" style="rounded=0;orthogonalLoop=1;jettySize=auto;html=1;endArrow=halfCircle;endFill=0;endSize=6;strokeWidth=1;sketch=0;exitX=0.25;exitY=0;exitDx=0;exitDy=0;" parent="IiUBcbkbjQB2-cWpCQRh-14" source="IiUBcbkbjQB2-cWpCQRh-19" target="IiUBcbkbjQB2-cWpCQRh-25" edge="1">
          <mxGeometry relative="1" as="geometry">
            <mxPoint x="100" y="495" as="sourcePoint" />
            <Array as="points">
              <mxPoint x="180" y="340" />
            </Array>
          </mxGeometry>
        </mxCell>
        <mxCell id="IiUBcbkbjQB2-cWpCQRh-24" value="" style="rounded=0;orthogonalLoop=1;jettySize=auto;html=1;endArrow=oval;endFill=0;sketch=0;sourcePerimeterSpacing=0;targetPerimeterSpacing=0;endSize=10;exitX=1;exitY=0.5;exitDx=0;exitDy=0;" parent="IiUBcbkbjQB2-cWpCQRh-14" source="IiUBcbkbjQB2-cWpCQRh-22" target="IiUBcbkbjQB2-cWpCQRh-25" edge="1">
          <mxGeometry relative="1" as="geometry">
            <mxPoint x="60" y="495" as="sourcePoint" />
          </mxGeometry>
        </mxCell>
        <mxCell id="IiUBcbkbjQB2-cWpCQRh-25" value="" style="ellipse;whiteSpace=wrap;html=1;align=center;aspect=fixed;fillColor=none;strokeColor=none;resizable=0;perimeter=centerPerimeter;rotatable=0;allowArrows=0;points=[];outlineConnect=1;" parent="IiUBcbkbjQB2-cWpCQRh-14" vertex="1">
          <mxGeometry x="135" y="335" width="10" height="10" as="geometry" />
        </mxCell>
        <mxCell id="IiUBcbkbjQB2-cWpCQRh-26" value="" style="rounded=0;orthogonalLoop=1;jettySize=auto;html=1;endArrow=halfCircle;endFill=0;endSize=6;strokeWidth=1;sketch=0;exitX=0.5;exitY=0;exitDx=0;exitDy=0;" parent="IiUBcbkbjQB2-cWpCQRh-14" source="IiUBcbkbjQB2-cWpCQRh-19" target="IiUBcbkbjQB2-cWpCQRh-28" edge="1">
          <mxGeometry relative="1" as="geometry">
            <mxPoint x="120" y="495" as="sourcePoint" />
            <Array as="points">
              <mxPoint x="200" y="260" />
            </Array>
          </mxGeometry>
        </mxCell>
        <mxCell id="IiUBcbkbjQB2-cWpCQRh-27" value="" style="rounded=0;orthogonalLoop=1;jettySize=auto;html=1;endArrow=oval;endFill=0;sketch=0;sourcePerimeterSpacing=0;targetPerimeterSpacing=0;endSize=10;exitX=1;exitY=0.5;exitDx=0;exitDy=0;" parent="IiUBcbkbjQB2-cWpCQRh-14" source="IiUBcbkbjQB2-cWpCQRh-18" target="IiUBcbkbjQB2-cWpCQRh-28" edge="1">
          <mxGeometry relative="1" as="geometry">
            <mxPoint x="80" y="495" as="sourcePoint" />
          </mxGeometry>
        </mxCell>
        <mxCell id="IiUBcbkbjQB2-cWpCQRh-28" value="" style="ellipse;whiteSpace=wrap;html=1;align=center;aspect=fixed;fillColor=none;strokeColor=none;resizable=0;perimeter=centerPerimeter;rotatable=0;allowArrows=0;points=[];outlineConnect=1;" parent="IiUBcbkbjQB2-cWpCQRh-14" vertex="1">
          <mxGeometry x="135" y="255" width="10" height="10" as="geometry" />
        </mxCell>
        <mxCell id="IiUBcbkbjQB2-cWpCQRh-29" value="" style="rounded=0;orthogonalLoop=1;jettySize=auto;html=1;endArrow=halfCircle;endFill=0;endSize=6;strokeWidth=1;sketch=0;exitX=0;exitY=0.5;exitDx=0;exitDy=0;" parent="IiUBcbkbjQB2-cWpCQRh-14" source="IiUBcbkbjQB2-cWpCQRh-21" target="IiUBcbkbjQB2-cWpCQRh-31" edge="1">
          <mxGeometry relative="1" as="geometry">
            <mxPoint x="350" y="495" as="sourcePoint" />
          </mxGeometry>
        </mxCell>
        <mxCell id="IiUBcbkbjQB2-cWpCQRh-30" value="" style="rounded=0;orthogonalLoop=1;jettySize=auto;html=1;endArrow=oval;endFill=0;sketch=0;sourcePerimeterSpacing=0;targetPerimeterSpacing=0;endSize=10;exitX=1;exitY=0.5;exitDx=0;exitDy=0;" parent="IiUBcbkbjQB2-cWpCQRh-14" source="IiUBcbkbjQB2-cWpCQRh-19" target="IiUBcbkbjQB2-cWpCQRh-31" edge="1">
          <mxGeometry relative="1" as="geometry">
            <mxPoint x="310" y="495" as="sourcePoint" />
          </mxGeometry>
        </mxCell>
        <mxCell id="IiUBcbkbjQB2-cWpCQRh-31" value="" style="ellipse;whiteSpace=wrap;html=1;align=center;aspect=fixed;fillColor=none;strokeColor=none;resizable=0;perimeter=centerPerimeter;rotatable=0;allowArrows=0;points=[];outlineConnect=1;" parent="IiUBcbkbjQB2-cWpCQRh-14" vertex="1">
          <mxGeometry x="255" y="415" width="10" height="10" as="geometry" />
        </mxCell>
        <mxCell id="IiUBcbkbjQB2-cWpCQRh-35" value="" style="rounded=0;orthogonalLoop=1;jettySize=auto;html=1;endArrow=halfCircle;endFill=0;endSize=6;strokeWidth=1;sketch=0;exitX=1;exitY=0.5;exitDx=0;exitDy=0;" parent="IiUBcbkbjQB2-cWpCQRh-14" source="IiUBcbkbjQB2-cWpCQRh-16" target="IiUBcbkbjQB2-cWpCQRh-37" edge="1">
          <mxGeometry relative="1" as="geometry">
            <mxPoint x="425" y="505" as="sourcePoint" />
            <Array as="points">
              <mxPoint x="460" y="260" />
            </Array>
          </mxGeometry>
        </mxCell>
        <mxCell id="IiUBcbkbjQB2-cWpCQRh-36" value="" style="rounded=0;orthogonalLoop=1;jettySize=auto;html=1;endArrow=oval;endFill=0;sketch=0;sourcePerimeterSpacing=0;targetPerimeterSpacing=0;endSize=10;exitX=0.75;exitY=0;exitDx=0;exitDy=0;" parent="IiUBcbkbjQB2-cWpCQRh-14" source="IiUBcbkbjQB2-cWpCQRh-21" target="IiUBcbkbjQB2-cWpCQRh-37" edge="1">
          <mxGeometry relative="1" as="geometry">
            <mxPoint x="385" y="505" as="sourcePoint" />
          </mxGeometry>
        </mxCell>
        <mxCell id="IiUBcbkbjQB2-cWpCQRh-37" value="" style="ellipse;whiteSpace=wrap;html=1;align=center;aspect=fixed;fillColor=none;strokeColor=none;resizable=0;perimeter=centerPerimeter;rotatable=0;allowArrows=0;points=[];outlineConnect=1;" parent="IiUBcbkbjQB2-cWpCQRh-14" vertex="1">
          <mxGeometry x="455" y="375" width="10" height="10" as="geometry" />
        </mxCell>
        <mxCell id="IiUBcbkbjQB2-cWpCQRh-38" value="" style="rounded=0;orthogonalLoop=1;jettySize=auto;html=1;endArrow=halfCircle;endFill=0;endSize=6;strokeWidth=1;sketch=0;exitX=1;exitY=0.5;exitDx=0;exitDy=0;" parent="IiUBcbkbjQB2-cWpCQRh-14" source="IiUBcbkbjQB2-cWpCQRh-43" target="IiUBcbkbjQB2-cWpCQRh-40" edge="1">
          <mxGeometry relative="1" as="geometry">
            <mxPoint x="360" y="95" as="sourcePoint" />
            <Array as="points">
              <mxPoint x="560" y="180" />
            </Array>
          </mxGeometry>
        </mxCell>
        <mxCell id="IiUBcbkbjQB2-cWpCQRh-39" value="" style="rounded=0;orthogonalLoop=1;jettySize=auto;html=1;endArrow=oval;endFill=0;sketch=0;sourcePerimeterSpacing=0;targetPerimeterSpacing=0;endSize=10;exitX=0.5;exitY=0;exitDx=0;exitDy=0;" parent="IiUBcbkbjQB2-cWpCQRh-14" source="IiUBcbkbjQB2-cWpCQRh-42" target="IiUBcbkbjQB2-cWpCQRh-40" edge="1">
          <mxGeometry relative="1" as="geometry">
            <mxPoint x="320" y="95" as="sourcePoint" />
          </mxGeometry>
        </mxCell>
        <mxCell id="IiUBcbkbjQB2-cWpCQRh-40" value="" style="ellipse;whiteSpace=wrap;html=1;align=center;aspect=fixed;fillColor=none;strokeColor=none;resizable=0;perimeter=centerPerimeter;rotatable=0;allowArrows=0;points=[];outlineConnect=1;" parent="IiUBcbkbjQB2-cWpCQRh-14" vertex="1">
          <mxGeometry x="555" y="370" width="10" height="10" as="geometry" />
        </mxCell>
        <mxCell id="IiUBcbkbjQB2-cWpCQRh-42" value="NSI" style="rounded=0;whiteSpace=wrap;html=1;" parent="IiUBcbkbjQB2-cWpCQRh-14" vertex="1">
          <mxGeometry x="520" y="400" width="80" height="40" as="geometry" />
        </mxCell>
        <mxCell id="IiUBcbkbjQB2-cWpCQRh-43" value="SMS" style="rounded=0;whiteSpace=wrap;html=1;" parent="IiUBcbkbjQB2-cWpCQRh-14" vertex="1">
          <mxGeometry x="280" y="160" width="80" height="40" as="geometry" />
        </mxCell>
        <mxCell id="IiUBcbkbjQB2-cWpCQRh-44" value="" style="rounded=0;orthogonalLoop=1;jettySize=auto;html=1;endArrow=halfCircle;endFill=0;endSize=6;strokeWidth=1;sketch=0;exitX=0.5;exitY=0;exitDx=0;exitDy=0;" parent="IiUBcbkbjQB2-cWpCQRh-14" source="IiUBcbkbjQB2-cWpCQRh-16" target="IiUBcbkbjQB2-cWpCQRh-46" edge="1">
          <mxGeometry relative="1" as="geometry">
            <mxPoint x="370" y="105" as="sourcePoint" />
          </mxGeometry>
        </mxCell>
        <mxCell id="IiUBcbkbjQB2-cWpCQRh-45" value="" style="rounded=0;orthogonalLoop=1;jettySize=auto;html=1;endArrow=oval;endFill=0;sketch=0;sourcePerimeterSpacing=0;targetPerimeterSpacing=0;endSize=10;exitX=0.5;exitY=1;exitDx=0;exitDy=0;" parent="IiUBcbkbjQB2-cWpCQRh-14" source="IiUBcbkbjQB2-cWpCQRh-43" target="IiUBcbkbjQB2-cWpCQRh-46" edge="1">
          <mxGeometry relative="1" as="geometry">
            <mxPoint x="330" y="105" as="sourcePoint" />
          </mxGeometry>
        </mxCell>
        <mxCell id="IiUBcbkbjQB2-cWpCQRh-46" value="" style="ellipse;whiteSpace=wrap;html=1;align=center;aspect=fixed;fillColor=none;strokeColor=none;resizable=0;perimeter=centerPerimeter;rotatable=0;allowArrows=0;points=[];outlineConnect=1;" parent="IiUBcbkbjQB2-cWpCQRh-14" vertex="1">
          <mxGeometry x="315" y="210" width="10" height="10" as="geometry" />
        </mxCell>
        <mxCell id="IiUBcbkbjQB2-cWpCQRh-47" value="" style="rounded=0;orthogonalLoop=1;jettySize=auto;html=1;endArrow=halfCircle;endFill=0;endSize=6;strokeWidth=1;sketch=0;exitX=0.25;exitY=1;exitDx=0;exitDy=0;" parent="IiUBcbkbjQB2-cWpCQRh-14" source="IiUBcbkbjQB2-cWpCQRh-16" target="IiUBcbkbjQB2-cWpCQRh-49" edge="1">
          <mxGeometry relative="1" as="geometry">
            <mxPoint x="280" y="505" as="sourcePoint" />
          </mxGeometry>
        </mxCell>
        <mxCell id="IiUBcbkbjQB2-cWpCQRh-48" value="" style="rounded=0;orthogonalLoop=1;jettySize=auto;html=1;endArrow=oval;endFill=0;sketch=0;sourcePerimeterSpacing=0;targetPerimeterSpacing=0;endSize=10;exitX=0.25;exitY=0;exitDx=0;exitDy=0;" parent="IiUBcbkbjQB2-cWpCQRh-14" source="IiUBcbkbjQB2-cWpCQRh-17" target="IiUBcbkbjQB2-cWpCQRh-49" edge="1">
          <mxGeometry relative="1" as="geometry">
            <mxPoint x="240" y="505" as="sourcePoint" />
          </mxGeometry>
        </mxCell>
        <mxCell id="IiUBcbkbjQB2-cWpCQRh-49" value="" style="ellipse;whiteSpace=wrap;html=1;align=center;aspect=fixed;fillColor=none;strokeColor=none;resizable=0;perimeter=centerPerimeter;rotatable=0;allowArrows=0;points=[];outlineConnect=1;" parent="IiUBcbkbjQB2-cWpCQRh-14" vertex="1">
          <mxGeometry x="295" y="300" width="10" height="10" as="geometry" />
        </mxCell>
        <mxCell id="IiUBcbkbjQB2-cWpCQRh-50" value="" style="rounded=0;orthogonalLoop=1;jettySize=auto;html=1;endArrow=halfCircle;endFill=0;endSize=6;strokeWidth=1;sketch=0;exitX=0.75;exitY=0;exitDx=0;exitDy=0;" parent="IiUBcbkbjQB2-cWpCQRh-14" source="IiUBcbkbjQB2-cWpCQRh-17" target="IiUBcbkbjQB2-cWpCQRh-52" edge="1">
          <mxGeometry relative="1" as="geometry">
            <mxPoint x="375" y="505" as="sourcePoint" />
          </mxGeometry>
        </mxCell>
        <mxCell id="IiUBcbkbjQB2-cWpCQRh-51" value="" style="rounded=0;orthogonalLoop=1;jettySize=auto;html=1;endArrow=oval;endFill=0;sketch=0;sourcePerimeterSpacing=0;targetPerimeterSpacing=0;endSize=10;exitX=0.75;exitY=1;exitDx=0;exitDy=0;" parent="IiUBcbkbjQB2-cWpCQRh-14" source="IiUBcbkbjQB2-cWpCQRh-16" target="IiUBcbkbjQB2-cWpCQRh-52" edge="1">
          <mxGeometry relative="1" as="geometry">
            <mxPoint x="335" y="505" as="sourcePoint" />
          </mxGeometry>
        </mxCell>
        <mxCell id="IiUBcbkbjQB2-cWpCQRh-52" value="" style="ellipse;whiteSpace=wrap;html=1;align=center;aspect=fixed;fillColor=none;strokeColor=none;resizable=0;perimeter=centerPerimeter;rotatable=0;allowArrows=0;points=[];outlineConnect=1;" parent="IiUBcbkbjQB2-cWpCQRh-14" vertex="1">
          <mxGeometry x="335" y="290" width="10" height="10" as="geometry" />
        </mxCell>
        <mxCell id="IiUBcbkbjQB2-cWpCQRh-53" value="Correlator: &lt;br&gt;email address" style="text;html=1;strokeColor=none;fillColor=none;align=center;verticalAlign=middle;whiteSpace=wrap;rounded=0;" parent="IiUBcbkbjQB2-cWpCQRh-14" vertex="1">
          <mxGeometry x="145" y="460" width="120" height="30" as="geometry" />
        </mxCell>
        <mxCell id="IiUBcbkbjQB2-cWpCQRh-54" value="Correlator: &lt;br&gt;--" style="text;html=1;strokeColor=none;fillColor=none;align=center;verticalAlign=middle;whiteSpace=wrap;rounded=0;" parent="IiUBcbkbjQB2-cWpCQRh-14" vertex="1">
          <mxGeometry x="380" y="460" width="120" height="30" as="geometry" />
        </mxCell>
        <mxCell id="IiUBcbkbjQB2-cWpCQRh-55" value="" style="rounded=0;orthogonalLoop=1;jettySize=auto;html=1;endArrow=halfCircle;endFill=0;endSize=6;strokeWidth=1;sketch=0;exitX=0;exitY=0.5;exitDx=0;exitDy=0;" parent="IiUBcbkbjQB2-cWpCQRh-14" source="IiUBcbkbjQB2-cWpCQRh-17" target="IiUBcbkbjQB2-cWpCQRh-57" edge="1">
          <mxGeometry relative="1" as="geometry">
            <mxPoint x="320" y="525" as="sourcePoint" />
            <Array as="points">
              <mxPoint x="220" y="340" />
            </Array>
          </mxGeometry>
        </mxCell>
        <mxCell id="IiUBcbkbjQB2-cWpCQRh-56" value="" style="rounded=0;orthogonalLoop=1;jettySize=auto;html=1;endArrow=oval;endFill=0;sketch=0;sourcePerimeterSpacing=0;targetPerimeterSpacing=0;endSize=10;exitX=0.75;exitY=0;exitDx=0;exitDy=0;" parent="IiUBcbkbjQB2-cWpCQRh-14" source="IiUBcbkbjQB2-cWpCQRh-19" target="IiUBcbkbjQB2-cWpCQRh-57" edge="1">
          <mxGeometry relative="1" as="geometry">
            <mxPoint x="280" y="525" as="sourcePoint" />
          </mxGeometry>
        </mxCell>
        <mxCell id="IiUBcbkbjQB2-cWpCQRh-57" value="" style="ellipse;whiteSpace=wrap;html=1;align=center;aspect=fixed;fillColor=none;strokeColor=none;resizable=0;perimeter=centerPerimeter;rotatable=0;allowArrows=0;points=[];outlineConnect=1;" parent="IiUBcbkbjQB2-cWpCQRh-14" vertex="1">
          <mxGeometry x="215" y="380" width="10" height="10" as="geometry" />
        </mxCell>
        <mxCell id="5QyBZNU3SE7XR_cs6Xt--1" value="(b)" style="rounded=0;orthogonalLoop=1;jettySize=auto;html=1;endArrow=halfCircle;endFill=0;endSize=6;strokeWidth=1;sketch=0;exitX=0.25;exitY=0;exitDx=0;exitDy=0;dashed=1;" parent="IiUBcbkbjQB2-cWpCQRh-14" edge="1">
          <mxGeometry x="0.6296" relative="1" as="geometry">
            <mxPoint x="420" y="400" as="sourcePoint" />
            <Array as="points">
              <mxPoint x="420" y="332" />
            </Array>
            <mxPoint x="380" y="332" as="targetPoint" />
            <mxPoint as="offset" />
          </mxGeometry>
        </mxCell>
        <mxCell id="5QyBZNU3SE7XR_cs6Xt--2" value="" style="rounded=0;orthogonalLoop=1;jettySize=auto;html=1;endArrow=oval;endFill=0;sketch=0;sourcePerimeterSpacing=0;targetPerimeterSpacing=0;endSize=10;exitX=1;exitY=0.75;exitDx=0;exitDy=0;" parent="IiUBcbkbjQB2-cWpCQRh-14" target="5QyBZNU3SE7XR_cs6Xt--3" edge="1">
          <mxGeometry relative="1" as="geometry">
            <mxPoint x="370" y="333" as="sourcePoint" />
          </mxGeometry>
        </mxCell>
        <mxCell id="5QyBZNU3SE7XR_cs6Xt--3" value="" style="ellipse;whiteSpace=wrap;html=1;align=center;aspect=fixed;fillColor=none;strokeColor=none;resizable=0;perimeter=centerPerimeter;rotatable=0;allowArrows=0;points=[];outlineConnect=1;" parent="IiUBcbkbjQB2-cWpCQRh-14" vertex="1">
          <mxGeometry x="375" y="327" width="10" height="10" as="geometry" />
        </mxCell>
        <mxCell id="5QyBZNU3SE7XR_cs6Xt--4" value="(a)" style="rounded=0;orthogonalLoop=1;jettySize=auto;html=1;endArrow=halfCircle;endFill=0;endSize=6;strokeWidth=1;sketch=0;exitX=1;exitY=0.25;exitDx=0;exitDy=0;dashed=1;" parent="IiUBcbkbjQB2-cWpCQRh-14" target="5QyBZNU3SE7XR_cs6Xt--6" edge="1">
          <mxGeometry x="0.5294" relative="1" as="geometry">
            <mxPoint x="240" y="410" as="sourcePoint" />
            <Array as="points">
              <mxPoint x="295" y="410" />
            </Array>
            <mxPoint as="offset" />
          </mxGeometry>
        </mxCell>
        <mxCell id="5QyBZNU3SE7XR_cs6Xt--5" value="" style="rounded=0;orthogonalLoop=1;jettySize=auto;html=1;endArrow=oval;endFill=0;sketch=0;sourcePerimeterSpacing=0;targetPerimeterSpacing=0;endSize=10;exitX=0.25;exitY=1;exitDx=0;exitDy=0;" parent="IiUBcbkbjQB2-cWpCQRh-14" target="5QyBZNU3SE7XR_cs6Xt--6" edge="1">
          <mxGeometry relative="1" as="geometry">
            <mxPoint x="295" y="370" as="sourcePoint" />
          </mxGeometry>
        </mxCell>
        <mxCell id="5QyBZNU3SE7XR_cs6Xt--6" value="" style="ellipse;whiteSpace=wrap;html=1;align=center;aspect=fixed;fillColor=none;strokeColor=none;resizable=0;perimeter=centerPerimeter;rotatable=0;allowArrows=0;points=[];outlineConnect=1;" parent="IiUBcbkbjQB2-cWpCQRh-14" vertex="1">
          <mxGeometry x="290" y="375" width="10" height="10" as="geometry" />
        </mxCell>
        <mxCell id="bQVR5IjyjO0hXK9mvz1O-3" value="" style="endArrow=none;html=1;rounded=0;entryX=0;entryY=0.5;entryDx=0;entryDy=0;" edge="1" parent="IiUBcbkbjQB2-cWpCQRh-14">
          <mxGeometry width="50" height="50" relative="1" as="geometry">
            <mxPoint x="220" y="340" as="sourcePoint" />
            <mxPoint x="280" y="260" as="targetPoint" />
            <Array as="points">
              <mxPoint x="220" y="260" />
            </Array>
          </mxGeometry>
        </mxCell>
      </root>
    </mxGraphModel>
  </diagram>
  <diagram id="D-eLpZeZSCR7nunC560u" name="Page-2">
    <mxGraphModel dx="934" dy="601" grid="1" gridSize="10" guides="1" tooltips="1" connect="1" arrows="1" fold="1" page="1" pageScale="1" pageWidth="850" pageHeight="1100" math="0" shadow="0">
      <root>
        <mxCell id="0" />
        <mxCell id="1" parent="0" />
        <mxCell id="5V-FECTdgv0p7324E0VB-1" value="Ministry" style="rounded=1;whiteSpace=wrap;html=1;dashed=1;container=1;collapsible=0;recursiveResize=0;align=left;verticalAlign=top;spacing=0;spacingTop=-4;arcSize=8;absoluteArcSize=1;" vertex="1" parent="1">
          <mxGeometry x="40" y="300" width="580" height="150" as="geometry" />
        </mxCell>
        <mxCell id="5V-FECTdgv0p7324E0VB-9" value="Directory Service" style="rounded=0;whiteSpace=wrap;html=1;" vertex="1" parent="5V-FECTdgv0p7324E0VB-1">
          <mxGeometry x="10" y="100" width="80" height="40" as="geometry" />
        </mxCell>
        <mxCell id="5V-FECTdgv0p7324E0VB-2" value="Sector" style="rounded=1;whiteSpace=wrap;html=1;dashed=1;container=1;collapsible=0;recursiveResize=0;align=left;verticalAlign=top;spacing=0;spacingTop=-4;arcSize=8;absoluteArcSize=1;" vertex="1" parent="1">
          <mxGeometry x="40" y="140" width="580" height="150" as="geometry" />
        </mxCell>
        <mxCell id="5V-FECTdgv0p7324E0VB-3" value="Te Rito" style="rounded=1;whiteSpace=wrap;html=1;container=1;collapsible=0;recursiveResize=0;align=left;verticalAlign=top;spacing=0;spacingTop=-4;arcSize=8;absoluteArcSize=1;" vertex="1" parent="1">
          <mxGeometry x="280" y="220" width="100" height="150" as="geometry" />
        </mxCell>
        <mxCell id="qlxSU_gfFCY67GhIL2ay-5" value="&lt;font style=&quot;font-size: 9px;&quot;&gt;(context)&lt;/font&gt;" style="text;html=1;strokeColor=none;fillColor=none;align=center;verticalAlign=middle;whiteSpace=wrap;rounded=0;" vertex="1" parent="5V-FECTdgv0p7324E0VB-3">
          <mxGeometry x="20" y="60" width="60" height="30" as="geometry" />
        </mxCell>
        <mxCell id="5V-FECTdgv0p7324E0VB-6" value="IdP&lt;br&gt;&lt;font style=&quot;font-size: 9px;&quot;&gt;(identity)&lt;/font&gt;" style="rounded=0;whiteSpace=wrap;html=1;" vertex="1" parent="1">
          <mxGeometry x="50" y="240" width="80" height="40" as="geometry" />
        </mxCell>
        <mxCell id="5V-FECTdgv0p7324E0VB-7" value="IdP&lt;br&gt;Broker" style="rounded=0;whiteSpace=wrap;html=1;" vertex="1" parent="1">
          <mxGeometry x="170" y="400" width="80" height="40" as="geometry" />
        </mxCell>
        <mxCell id="5V-FECTdgv0p7324E0VB-8" value="Service A&lt;br&gt;&lt;font style=&quot;font-size: 9px;&quot;&gt;(locally managed athorisation)&lt;/font&gt;" style="rounded=0;whiteSpace=wrap;html=1;" vertex="1" parent="1">
          <mxGeometry x="410" y="400" width="80" height="40" as="geometry" />
        </mxCell>
        <mxCell id="5V-FECTdgv0p7324E0VB-10" value="" style="rounded=0;orthogonalLoop=1;jettySize=auto;html=1;endArrow=halfCircle;endFill=0;endSize=6;strokeWidth=1;sketch=0;exitX=0;exitY=0.5;exitDx=0;exitDy=0;" edge="1" parent="1" source="5V-FECTdgv0p7324E0VB-7" target="5V-FECTdgv0p7324E0VB-12">
          <mxGeometry relative="1" as="geometry">
            <mxPoint x="110" y="495" as="sourcePoint" />
            <Array as="points" />
          </mxGeometry>
        </mxCell>
        <mxCell id="5V-FECTdgv0p7324E0VB-11" value="" style="rounded=0;orthogonalLoop=1;jettySize=auto;html=1;endArrow=oval;endFill=0;sketch=0;sourcePerimeterSpacing=0;targetPerimeterSpacing=0;endSize=10;exitX=1;exitY=0.5;exitDx=0;exitDy=0;" edge="1" parent="1" source="5V-FECTdgv0p7324E0VB-9" target="5V-FECTdgv0p7324E0VB-12">
          <mxGeometry relative="1" as="geometry">
            <mxPoint x="70" y="495" as="sourcePoint" />
          </mxGeometry>
        </mxCell>
        <mxCell id="5V-FECTdgv0p7324E0VB-12" value="" style="ellipse;whiteSpace=wrap;html=1;align=center;aspect=fixed;fillColor=none;strokeColor=none;resizable=0;perimeter=centerPerimeter;rotatable=0;allowArrows=0;points=[];outlineConnect=1;" vertex="1" parent="1">
          <mxGeometry x="145" y="415" width="10" height="10" as="geometry" />
        </mxCell>
        <mxCell id="5V-FECTdgv0p7324E0VB-13" value="" style="rounded=0;orthogonalLoop=1;jettySize=auto;html=1;endArrow=halfCircle;endFill=0;endSize=6;strokeWidth=1;sketch=0;exitX=0.5;exitY=0;exitDx=0;exitDy=0;" edge="1" parent="1" source="5V-FECTdgv0p7324E0VB-7" target="5V-FECTdgv0p7324E0VB-15">
          <mxGeometry relative="1" as="geometry">
            <mxPoint x="130" y="495" as="sourcePoint" />
            <Array as="points">
              <mxPoint x="210" y="260" />
            </Array>
          </mxGeometry>
        </mxCell>
        <mxCell id="5V-FECTdgv0p7324E0VB-14" value="" style="rounded=0;orthogonalLoop=1;jettySize=auto;html=1;endArrow=oval;endFill=0;sketch=0;sourcePerimeterSpacing=0;targetPerimeterSpacing=0;endSize=10;exitX=1;exitY=0.5;exitDx=0;exitDy=0;" edge="1" parent="1" source="5V-FECTdgv0p7324E0VB-6" target="5V-FECTdgv0p7324E0VB-15">
          <mxGeometry relative="1" as="geometry">
            <mxPoint x="90" y="495" as="sourcePoint" />
          </mxGeometry>
        </mxCell>
        <mxCell id="5V-FECTdgv0p7324E0VB-15" value="" style="ellipse;whiteSpace=wrap;html=1;align=center;aspect=fixed;fillColor=none;strokeColor=none;resizable=0;perimeter=centerPerimeter;rotatable=0;allowArrows=0;points=[];outlineConnect=1;" vertex="1" parent="1">
          <mxGeometry x="145" y="255" width="10" height="10" as="geometry" />
        </mxCell>
        <mxCell id="5V-FECTdgv0p7324E0VB-16" value="" style="rounded=0;orthogonalLoop=1;jettySize=auto;html=1;endArrow=halfCircle;endFill=0;endSize=6;strokeWidth=1;sketch=0;exitX=0;exitY=0.5;exitDx=0;exitDy=0;" edge="1" parent="1" target="5V-FECTdgv0p7324E0VB-18">
          <mxGeometry relative="1" as="geometry">
            <mxPoint x="410" y="430" as="sourcePoint" />
          </mxGeometry>
        </mxCell>
        <mxCell id="5V-FECTdgv0p7324E0VB-17" value="" style="rounded=0;orthogonalLoop=1;jettySize=auto;html=1;endArrow=oval;endFill=0;sketch=0;sourcePerimeterSpacing=0;targetPerimeterSpacing=0;endSize=10;exitX=1;exitY=0.5;exitDx=0;exitDy=0;" edge="1" parent="1" target="5V-FECTdgv0p7324E0VB-18">
          <mxGeometry relative="1" as="geometry">
            <mxPoint x="250" y="430" as="sourcePoint" />
          </mxGeometry>
        </mxCell>
        <mxCell id="5V-FECTdgv0p7324E0VB-18" value="" style="ellipse;whiteSpace=wrap;html=1;align=center;aspect=fixed;fillColor=none;strokeColor=none;resizable=0;perimeter=centerPerimeter;rotatable=0;allowArrows=0;points=[];outlineConnect=1;" vertex="1" parent="1">
          <mxGeometry x="265" y="425" width="10" height="10" as="geometry" />
        </mxCell>
        <mxCell id="5V-FECTdgv0p7324E0VB-19" value="(b)" style="rounded=0;orthogonalLoop=1;jettySize=auto;html=1;endArrow=halfCircle;endFill=0;endSize=6;strokeWidth=1;sketch=0;exitX=0.25;exitY=0;exitDx=0;exitDy=0;dashed=1;" edge="1" parent="1">
          <mxGeometry x="0.6296" relative="1" as="geometry">
            <mxPoint x="430" y="400" as="sourcePoint" />
            <Array as="points">
              <mxPoint x="430" y="332" />
            </Array>
            <mxPoint x="390" y="332" as="targetPoint" />
            <mxPoint as="offset" />
          </mxGeometry>
        </mxCell>
        <mxCell id="5V-FECTdgv0p7324E0VB-20" value="" style="rounded=0;orthogonalLoop=1;jettySize=auto;html=1;endArrow=oval;endFill=0;sketch=0;sourcePerimeterSpacing=0;targetPerimeterSpacing=0;endSize=10;exitX=1;exitY=0.75;exitDx=0;exitDy=0;" edge="1" parent="1" source="5V-FECTdgv0p7324E0VB-3" target="5V-FECTdgv0p7324E0VB-21">
          <mxGeometry relative="1" as="geometry">
            <mxPoint x="380" y="515" as="sourcePoint" />
          </mxGeometry>
        </mxCell>
        <mxCell id="5V-FECTdgv0p7324E0VB-21" value="" style="ellipse;whiteSpace=wrap;html=1;align=center;aspect=fixed;fillColor=none;strokeColor=none;resizable=0;perimeter=centerPerimeter;rotatable=0;allowArrows=0;points=[];outlineConnect=1;" vertex="1" parent="1">
          <mxGeometry x="385" y="327" width="10" height="10" as="geometry" />
        </mxCell>
        <mxCell id="5V-FECTdgv0p7324E0VB-22" value="" style="rounded=0;orthogonalLoop=1;jettySize=auto;html=1;endArrow=halfCircle;endFill=0;endSize=6;strokeWidth=1;sketch=0;exitX=1;exitY=0.25;exitDx=0;exitDy=0;" edge="1" parent="1" source="5V-FECTdgv0p7324E0VB-3" target="5V-FECTdgv0p7324E0VB-24">
          <mxGeometry relative="1" as="geometry">
            <mxPoint x="435" y="505" as="sourcePoint" />
            <Array as="points">
              <mxPoint x="470" y="258" />
            </Array>
          </mxGeometry>
        </mxCell>
        <mxCell id="5V-FECTdgv0p7324E0VB-23" value="" style="rounded=0;orthogonalLoop=1;jettySize=auto;html=1;endArrow=oval;endFill=0;sketch=0;sourcePerimeterSpacing=0;targetPerimeterSpacing=0;endSize=10;exitX=0.75;exitY=0;exitDx=0;exitDy=0;" edge="1" parent="1" source="5V-FECTdgv0p7324E0VB-8" target="5V-FECTdgv0p7324E0VB-24">
          <mxGeometry relative="1" as="geometry">
            <mxPoint x="395" y="505" as="sourcePoint" />
          </mxGeometry>
        </mxCell>
        <mxCell id="5V-FECTdgv0p7324E0VB-24" value="" style="ellipse;whiteSpace=wrap;html=1;align=center;aspect=fixed;fillColor=none;strokeColor=none;resizable=0;perimeter=centerPerimeter;rotatable=0;allowArrows=0;points=[];outlineConnect=1;" vertex="1" parent="1">
          <mxGeometry x="465" y="375" width="10" height="10" as="geometry" />
        </mxCell>
        <mxCell id="5V-FECTdgv0p7324E0VB-25" value="" style="rounded=0;orthogonalLoop=1;jettySize=auto;html=1;endArrow=halfCircle;endFill=0;endSize=6;strokeWidth=1;sketch=0;exitX=1;exitY=0.5;exitDx=0;exitDy=0;" edge="1" parent="1" source="5V-FECTdgv0p7324E0VB-29" target="5V-FECTdgv0p7324E0VB-27">
          <mxGeometry relative="1" as="geometry">
            <mxPoint x="370" y="95" as="sourcePoint" />
            <Array as="points">
              <mxPoint x="570" y="170" />
            </Array>
          </mxGeometry>
        </mxCell>
        <mxCell id="5V-FECTdgv0p7324E0VB-26" value="" style="rounded=0;orthogonalLoop=1;jettySize=auto;html=1;endArrow=oval;endFill=0;sketch=0;sourcePerimeterSpacing=0;targetPerimeterSpacing=0;endSize=10;exitX=0.5;exitY=0;exitDx=0;exitDy=0;" edge="1" parent="1" source="5V-FECTdgv0p7324E0VB-28" target="5V-FECTdgv0p7324E0VB-27">
          <mxGeometry relative="1" as="geometry">
            <mxPoint x="330" y="95" as="sourcePoint" />
          </mxGeometry>
        </mxCell>
        <mxCell id="5V-FECTdgv0p7324E0VB-27" value="" style="ellipse;whiteSpace=wrap;html=1;align=center;aspect=fixed;fillColor=none;strokeColor=none;resizable=0;perimeter=centerPerimeter;rotatable=0;allowArrows=0;points=[];outlineConnect=1;" vertex="1" parent="1">
          <mxGeometry x="565" y="370" width="10" height="10" as="geometry" />
        </mxCell>
        <mxCell id="5V-FECTdgv0p7324E0VB-28" value="NSI" style="rounded=0;whiteSpace=wrap;html=1;" vertex="1" parent="1">
          <mxGeometry x="530" y="400" width="80" height="40" as="geometry" />
        </mxCell>
        <mxCell id="5V-FECTdgv0p7324E0VB-29" value="SMS" style="rounded=0;whiteSpace=wrap;html=1;" vertex="1" parent="1">
          <mxGeometry x="290" y="150" width="80" height="40" as="geometry" />
        </mxCell>
        <mxCell id="5V-FECTdgv0p7324E0VB-30" value="" style="rounded=0;orthogonalLoop=1;jettySize=auto;html=1;endArrow=halfCircle;endFill=0;endSize=6;strokeWidth=1;sketch=0;exitX=0.5;exitY=0;exitDx=0;exitDy=0;" edge="1" parent="1" source="5V-FECTdgv0p7324E0VB-3" target="5V-FECTdgv0p7324E0VB-32">
          <mxGeometry relative="1" as="geometry">
            <mxPoint x="380" y="95" as="sourcePoint" />
          </mxGeometry>
        </mxCell>
        <mxCell id="5V-FECTdgv0p7324E0VB-31" value="" style="rounded=0;orthogonalLoop=1;jettySize=auto;html=1;endArrow=oval;endFill=0;sketch=0;sourcePerimeterSpacing=0;targetPerimeterSpacing=0;endSize=10;exitX=0.5;exitY=1;exitDx=0;exitDy=0;" edge="1" parent="1" source="5V-FECTdgv0p7324E0VB-29" target="5V-FECTdgv0p7324E0VB-32">
          <mxGeometry relative="1" as="geometry">
            <mxPoint x="340" y="105" as="sourcePoint" />
          </mxGeometry>
        </mxCell>
        <mxCell id="5V-FECTdgv0p7324E0VB-32" value="" style="ellipse;whiteSpace=wrap;html=1;align=center;aspect=fixed;fillColor=none;strokeColor=none;resizable=0;perimeter=centerPerimeter;rotatable=0;allowArrows=0;points=[];outlineConnect=1;" vertex="1" parent="1">
          <mxGeometry x="325" y="200" width="10" height="10" as="geometry" />
        </mxCell>
        <mxCell id="5V-FECTdgv0p7324E0VB-39" value="Correlator: &lt;br&gt;email address" style="text;html=1;strokeColor=none;fillColor=none;align=center;verticalAlign=middle;whiteSpace=wrap;rounded=0;" vertex="1" parent="1">
          <mxGeometry x="165" y="460" width="85" height="30" as="geometry" />
        </mxCell>
        <mxCell id="5V-FECTdgv0p7324E0VB-40" value="Correlator: &lt;br&gt;(NSN or email)" style="text;html=1;strokeColor=none;fillColor=none;align=center;verticalAlign=middle;whiteSpace=wrap;rounded=0;" vertex="1" parent="1">
          <mxGeometry x="390" y="460" width="120" height="30" as="geometry" />
        </mxCell>
        <mxCell id="5V-FECTdgv0p7324E0VB-41" value="" style="rounded=0;orthogonalLoop=1;jettySize=auto;html=1;endArrow=halfCircle;endFill=0;endSize=6;strokeWidth=1;sketch=0;exitX=0;exitY=0.5;exitDx=0;exitDy=0;" edge="1" parent="1" source="5V-FECTdgv0p7324E0VB-3" target="5V-FECTdgv0p7324E0VB-43">
          <mxGeometry relative="1" as="geometry">
            <mxPoint x="330" y="525" as="sourcePoint" />
            <Array as="points">
              <mxPoint x="230" y="295" />
            </Array>
          </mxGeometry>
        </mxCell>
        <mxCell id="5V-FECTdgv0p7324E0VB-42" value="" style="rounded=0;orthogonalLoop=1;jettySize=auto;html=1;endArrow=oval;endFill=0;sketch=0;sourcePerimeterSpacing=0;targetPerimeterSpacing=0;endSize=10;exitX=0.75;exitY=0;exitDx=0;exitDy=0;" edge="1" parent="1" source="5V-FECTdgv0p7324E0VB-7" target="5V-FECTdgv0p7324E0VB-43">
          <mxGeometry relative="1" as="geometry">
            <mxPoint x="290" y="525" as="sourcePoint" />
          </mxGeometry>
        </mxCell>
        <mxCell id="5V-FECTdgv0p7324E0VB-43" value="" style="ellipse;whiteSpace=wrap;html=1;align=center;aspect=fixed;fillColor=none;strokeColor=none;resizable=0;perimeter=centerPerimeter;rotatable=0;allowArrows=0;points=[];outlineConnect=1;" vertex="1" parent="1">
          <mxGeometry x="225" y="380" width="10" height="10" as="geometry" />
        </mxCell>
        <mxCell id="5V-FECTdgv0p7324E0VB-47" value="(a)" style="rounded=0;orthogonalLoop=1;jettySize=auto;html=1;endArrow=halfCircle;endFill=0;endSize=6;strokeWidth=1;sketch=0;exitX=1;exitY=0.25;exitDx=0;exitDy=0;dashed=1;" edge="1" target="5V-FECTdgv0p7324E0VB-49" parent="1" source="5V-FECTdgv0p7324E0VB-7">
          <mxGeometry x="0.5294" relative="1" as="geometry">
            <mxPoint x="350" y="550" as="sourcePoint" />
            <Array as="points">
              <mxPoint x="305" y="410" />
            </Array>
            <mxPoint as="offset" />
          </mxGeometry>
        </mxCell>
        <mxCell id="5V-FECTdgv0p7324E0VB-48" value="" style="rounded=0;orthogonalLoop=1;jettySize=auto;html=1;endArrow=oval;endFill=0;sketch=0;sourcePerimeterSpacing=0;targetPerimeterSpacing=0;endSize=10;exitX=0.25;exitY=1;exitDx=0;exitDy=0;" edge="1" target="5V-FECTdgv0p7324E0VB-49" parent="1" source="5V-FECTdgv0p7324E0VB-3">
          <mxGeometry relative="1" as="geometry">
            <mxPoint x="310" y="550" as="sourcePoint" />
          </mxGeometry>
        </mxCell>
        <mxCell id="5V-FECTdgv0p7324E0VB-49" value="" style="ellipse;whiteSpace=wrap;html=1;align=center;aspect=fixed;fillColor=none;strokeColor=none;resizable=0;perimeter=centerPerimeter;rotatable=0;allowArrows=0;points=[];outlineConnect=1;" vertex="1" parent="1">
          <mxGeometry x="300" y="375" width="10" height="10" as="geometry" />
        </mxCell>
        <mxCell id="qlxSU_gfFCY67GhIL2ay-1" value="IdP" style="rounded=0;whiteSpace=wrap;html=1;" vertex="1" parent="1">
          <mxGeometry x="50" y="320" width="80" height="40" as="geometry" />
        </mxCell>
        <mxCell id="qlxSU_gfFCY67GhIL2ay-2" value="" style="rounded=0;orthogonalLoop=1;jettySize=auto;html=1;endArrow=halfCircle;endFill=0;endSize=6;strokeWidth=1;sketch=0;exitX=0.25;exitY=0;exitDx=0;exitDy=0;" edge="1" target="qlxSU_gfFCY67GhIL2ay-4" parent="1" source="5V-FECTdgv0p7324E0VB-7">
          <mxGeometry relative="1" as="geometry">
            <mxPoint x="185" y="525" as="sourcePoint" />
            <Array as="points">
              <mxPoint x="190" y="340" />
            </Array>
          </mxGeometry>
        </mxCell>
        <mxCell id="qlxSU_gfFCY67GhIL2ay-3" value="" style="rounded=0;orthogonalLoop=1;jettySize=auto;html=1;endArrow=oval;endFill=0;sketch=0;sourcePerimeterSpacing=0;targetPerimeterSpacing=0;endSize=10;exitX=1;exitY=0.5;exitDx=0;exitDy=0;" edge="1" target="qlxSU_gfFCY67GhIL2ay-4" parent="1" source="qlxSU_gfFCY67GhIL2ay-1">
          <mxGeometry relative="1" as="geometry">
            <mxPoint x="145" y="525" as="sourcePoint" />
          </mxGeometry>
        </mxCell>
        <mxCell id="qlxSU_gfFCY67GhIL2ay-4" value="" style="ellipse;whiteSpace=wrap;html=1;align=center;aspect=fixed;fillColor=none;strokeColor=none;resizable=0;perimeter=centerPerimeter;rotatable=0;allowArrows=0;points=[];outlineConnect=1;" vertex="1" parent="1">
          <mxGeometry x="145" y="335" width="10" height="10" as="geometry" />
        </mxCell>
      </root>
    </mxGraphModel>
  </diagram>
  <diagram id="aP5i7sf271OHJmtex8qK" name="Page-3">
    <mxGraphModel dx="794" dy="511" grid="1" gridSize="10" guides="1" tooltips="1" connect="1" arrows="1" fold="1" page="1" pageScale="1" pageWidth="850" pageHeight="1100" math="0" shadow="0">
      <root>
        <mxCell id="0" />
        <mxCell id="1" parent="0" />
        <mxCell id="pnLrBwRG9BkUejNkOJUQ-4" value="NSN" style="edgeStyle=orthogonalEdgeStyle;rounded=0;orthogonalLoop=1;jettySize=auto;html=1;exitX=0.5;exitY=1;exitDx=0;exitDy=0;entryX=0.5;entryY=0;entryDx=0;entryDy=0;" edge="1" parent="1" source="pnLrBwRG9BkUejNkOJUQ-2" target="pnLrBwRG9BkUejNkOJUQ-3">
          <mxGeometry relative="1" as="geometry" />
        </mxCell>
        <mxCell id="pnLrBwRG9BkUejNkOJUQ-16" value="cred" style="edgeStyle=orthogonalEdgeStyle;rounded=0;orthogonalLoop=1;jettySize=auto;html=1;exitX=1;exitY=0.5;exitDx=0;exitDy=0;entryX=0;entryY=0.5;entryDx=0;entryDy=0;" edge="1" parent="1" source="pnLrBwRG9BkUejNkOJUQ-2" target="pnLrBwRG9BkUejNkOJUQ-11">
          <mxGeometry relative="1" as="geometry" />
        </mxCell>
        <mxCell id="pnLrBwRG9BkUejNkOJUQ-2" value="User" style="html=1;dashed=0;whiteSpace=wrap;" vertex="1" parent="1">
          <mxGeometry x="160" y="160" width="40" height="40" as="geometry" />
        </mxCell>
        <mxCell id="pnLrBwRG9BkUejNkOJUQ-8" style="edgeStyle=orthogonalEdgeStyle;rounded=0;orthogonalLoop=1;jettySize=auto;html=1;exitX=1;exitY=0.5;exitDx=0;exitDy=0;entryX=0;entryY=0.5;entryDx=0;entryDy=0;" edge="1" parent="1" source="pnLrBwRG9BkUejNkOJUQ-3" target="pnLrBwRG9BkUejNkOJUQ-7">
          <mxGeometry relative="1" as="geometry" />
        </mxCell>
        <mxCell id="pnLrBwRG9BkUejNkOJUQ-3" value="NSI" style="shape=ellipse;html=1;dashed=0;whiteSpace=wrap;aspect=fixed;perimeter=ellipsePerimeter;" vertex="1" parent="1">
          <mxGeometry x="160" y="240" width="40" height="40" as="geometry" />
        </mxCell>
        <mxCell id="pnLrBwRG9BkUejNkOJUQ-5" value="Sys A" style="shape=ellipse;html=1;dashed=0;whiteSpace=wrap;aspect=fixed;perimeter=ellipsePerimeter;" vertex="1" parent="1">
          <mxGeometry x="400" y="240" width="40" height="40" as="geometry" />
        </mxCell>
        <mxCell id="pnLrBwRG9BkUejNkOJUQ-10" value="context" style="edgeStyle=orthogonalEdgeStyle;rounded=0;orthogonalLoop=1;jettySize=auto;html=1;exitX=1;exitY=0.5;exitDx=0;exitDy=0;entryX=0;entryY=0.5;entryDx=0;entryDy=0;horizontal=0;" edge="1" parent="1" source="pnLrBwRG9BkUejNkOJUQ-6" target="pnLrBwRG9BkUejNkOJUQ-5">
          <mxGeometry relative="1" as="geometry" />
        </mxCell>
        <mxCell id="pnLrBwRG9BkUejNkOJUQ-19" value="context" style="edgeStyle=orthogonalEdgeStyle;rounded=0;orthogonalLoop=1;jettySize=auto;html=1;exitX=0.5;exitY=1;exitDx=0;exitDy=0;entryX=0.5;entryY=0;entryDx=0;entryDy=0;" edge="1" parent="1" source="pnLrBwRG9BkUejNkOJUQ-6" target="pnLrBwRG9BkUejNkOJUQ-17">
          <mxGeometry relative="1" as="geometry" />
        </mxCell>
        <mxCell id="pnLrBwRG9BkUejNkOJUQ-6" value="Te Rito" style="shape=ellipse;html=1;dashed=0;whiteSpace=wrap;aspect=fixed;perimeter=ellipsePerimeter;" vertex="1" parent="1">
          <mxGeometry x="320" y="240" width="40" height="40" as="geometry" />
        </mxCell>
        <mxCell id="pnLrBwRG9BkUejNkOJUQ-9" value="context" style="edgeStyle=orthogonalEdgeStyle;rounded=0;orthogonalLoop=1;jettySize=auto;html=1;exitX=1;exitY=0.5;exitDx=0;exitDy=0;entryX=0;entryY=0.5;entryDx=0;entryDy=0;horizontal=0;" edge="1" parent="1" source="pnLrBwRG9BkUejNkOJUQ-7" target="pnLrBwRG9BkUejNkOJUQ-6">
          <mxGeometry relative="1" as="geometry" />
        </mxCell>
        <mxCell id="pnLrBwRG9BkUejNkOJUQ-7" value="SMS" style="shape=ellipse;html=1;dashed=0;whiteSpace=wrap;aspect=fixed;perimeter=ellipsePerimeter;" vertex="1" parent="1">
          <mxGeometry x="240" y="240" width="40" height="40" as="geometry" />
        </mxCell>
        <mxCell id="pnLrBwRG9BkUejNkOJUQ-13" style="edgeStyle=orthogonalEdgeStyle;rounded=0;orthogonalLoop=1;jettySize=auto;html=1;exitX=1;exitY=0.5;exitDx=0;exitDy=0;entryX=0;entryY=0.5;entryDx=0;entryDy=0;" edge="1" parent="1" source="pnLrBwRG9BkUejNkOJUQ-11" target="pnLrBwRG9BkUejNkOJUQ-12">
          <mxGeometry relative="1" as="geometry" />
        </mxCell>
        <mxCell id="pnLrBwRG9BkUejNkOJUQ-11" value="IdP" style="shape=ellipse;html=1;dashed=0;whiteSpace=wrap;aspect=fixed;perimeter=ellipsePerimeter;" vertex="1" parent="1">
          <mxGeometry x="240" y="160" width="40" height="40" as="geometry" />
        </mxCell>
        <mxCell id="pnLrBwRG9BkUejNkOJUQ-14" value="token" style="edgeStyle=orthogonalEdgeStyle;rounded=0;orthogonalLoop=1;jettySize=auto;html=1;exitX=1;exitY=0.5;exitDx=0;exitDy=0;entryX=0.5;entryY=0;entryDx=0;entryDy=0;horizontal=0;" edge="1" parent="1" source="pnLrBwRG9BkUejNkOJUQ-12" target="pnLrBwRG9BkUejNkOJUQ-5">
          <mxGeometry x="-0.6667" relative="1" as="geometry">
            <Array as="points">
              <mxPoint x="420" y="180" />
            </Array>
            <mxPoint as="offset" />
          </mxGeometry>
        </mxCell>
        <mxCell id="pnLrBwRG9BkUejNkOJUQ-15" style="edgeStyle=orthogonalEdgeStyle;rounded=0;orthogonalLoop=1;jettySize=auto;html=1;exitX=0.5;exitY=1;exitDx=0;exitDy=0;entryX=0.5;entryY=0;entryDx=0;entryDy=0;" edge="1" parent="1" source="pnLrBwRG9BkUejNkOJUQ-12" target="pnLrBwRG9BkUejNkOJUQ-6">
          <mxGeometry relative="1" as="geometry" />
        </mxCell>
        <mxCell id="pnLrBwRG9BkUejNkOJUQ-12" value="IdP Broker" style="shape=ellipse;html=1;dashed=0;whiteSpace=wrap;aspect=fixed;perimeter=ellipsePerimeter;" vertex="1" parent="1">
          <mxGeometry x="320" y="160" width="40" height="40" as="geometry" />
        </mxCell>
        <mxCell id="pnLrBwRG9BkUejNkOJUQ-20" style="edgeStyle=orthogonalEdgeStyle;rounded=0;orthogonalLoop=1;jettySize=auto;html=1;exitX=0;exitY=0.5;exitDx=0;exitDy=0;entryX=1;entryY=0.5;entryDx=0;entryDy=0;" edge="1" parent="1" source="pnLrBwRG9BkUejNkOJUQ-17" target="pnLrBwRG9BkUejNkOJUQ-18">
          <mxGeometry relative="1" as="geometry" />
        </mxCell>
        <mxCell id="pnLrBwRG9BkUejNkOJUQ-17" value="SMS" style="shape=ellipse;html=1;dashed=0;whiteSpace=wrap;aspect=fixed;perimeter=ellipsePerimeter;" vertex="1" parent="1">
          <mxGeometry x="320" y="320" width="40" height="40" as="geometry" />
        </mxCell>
        <mxCell id="pnLrBwRG9BkUejNkOJUQ-23" style="edgeStyle=orthogonalEdgeStyle;rounded=0;orthogonalLoop=1;jettySize=auto;html=1;exitX=0;exitY=0.5;exitDx=0;exitDy=0;entryX=1;entryY=0.5;entryDx=0;entryDy=0;" edge="1" parent="1" source="pnLrBwRG9BkUejNkOJUQ-18" target="pnLrBwRG9BkUejNkOJUQ-22">
          <mxGeometry relative="1" as="geometry" />
        </mxCell>
        <mxCell id="pnLrBwRG9BkUejNkOJUQ-18" value="User" style="html=1;dashed=0;whiteSpace=wrap;" vertex="1" parent="1">
          <mxGeometry x="240" y="320" width="40" height="40" as="geometry" />
        </mxCell>
        <mxCell id="pnLrBwRG9BkUejNkOJUQ-24" style="edgeStyle=orthogonalEdgeStyle;rounded=0;orthogonalLoop=1;jettySize=auto;html=1;exitX=0.5;exitY=0;exitDx=0;exitDy=0;entryX=0.5;entryY=1;entryDx=0;entryDy=0;" edge="1" parent="1" source="pnLrBwRG9BkUejNkOJUQ-22" target="pnLrBwRG9BkUejNkOJUQ-3">
          <mxGeometry relative="1" as="geometry" />
        </mxCell>
        <mxCell id="pnLrBwRG9BkUejNkOJUQ-22" value="ENROL" style="shape=ellipse;html=1;dashed=0;whiteSpace=wrap;aspect=fixed;perimeter=ellipsePerimeter;" vertex="1" parent="1">
          <mxGeometry x="160" y="320" width="40" height="40" as="geometry" />
        </mxCell>
      </root>
    </mxGraphModel>
  </diagram>
</mxfile>
